# xmcd
#
# Track frame offsets:
#	150
#	19725
#	39300
#	60149
#	76168
#	94576
#	115276
#	133411
#
# Disc length: 2046 seconds
#
# Revision: 0
# Processed by: cddbd v1.5.2PL0 Copyright (c) Steve Scherf et al.
# Submitted via: dBpowerAMP V4.0
#
DISCID=5907fc08
DTITLE=Krispy - Millennium Funk
DYEAR=2001
DGENRE=
TTITLE0=No Question
TTITLE1=Ill Format (feat DJ Woody)
TTITLE2=Come Real
TTITLE3=Dress Back (feat TY)
TTITLE4=Y'All Feel It
TTITLE5=Hip Hop Boy 2000
TTITLE6=Other Side Of The Mountain
TTITLE7=Moozick
EXTD=flat4 done this..
EXTT0=
EXTT1=
EXTT2=
EXTT3=
EXTT4=
EXTT5=
EXTT6=
EXTT7=
PLAYORDER=
